<?xml version="1.0" standalone="no"?>
<!DOCTYPE svg PUBLIC "-//W3C//DTD SVG 20010904//EN"
 "http://www.w3.org/TR/2001/REC-SVG-20010904/DTD/svg10.dtd">
<svg version="1.0" xmlns="http://www.w3.org/2000/svg"
 width="512.000000pt" height="512.000000pt" viewBox="0 0 512.000000 512.000000"
 preserveAspectRatio="xMidYMid meet">

<g transform="translate(0.000000,512.000000) scale(0.100000,-0.100000)"
fill="#ffff" stroke="none">
<path d="M2603 5093 c-90 -31 -169 -130 -188 -235 l-7 -38 76 0 c74 0 76 0 82
28 32 132 214 154 277 32 34 -65 11 -144 -57 -194 -27 -21 -38 -21 -727 -24
l-699 -3 0 -75 0 -75 708 3 707 3 56 26 c187 88 237 319 102 469 -64 72 -127
100 -218 99 -38 0 -89 -7 -112 -16z"/>
<path d="M1060 4585 l0 -75 75 0 75 0 0 75 0 75 -75 0 -75 0 0 -75z"/>
<path d="M745 4291 c-82 -24 -158 -64 -231 -122 l-62 -49 -54 25 c-105 48
-234 56 -348 21 l-45 -13 -3 -2072 -2 -2071 2560 0 2560 0 0 844 0 844 -145
129 -145 128 145 3 145 3 0 74 0 75 -232 0 -233 0 -127 113 -127 112 139 3
140 3 0 74 0 75 -226 0 -226 0 -151 134 c-84 74 -267 236 -407 360 -140 124
-258 226 -261 226 -3 0 -81 -70 -173 -155 l-167 -155 -52 29 c-95 54 -189 76
-312 74 -60 0 -123 -5 -140 -10 -26 -9 -35 -6 -70 23 -55 45 -129 80 -197 94
l-58 11 0 100 0 99 260 0 260 0 0 75 0 75 -282 0 -283 0 -29 53 c-46 82 -158
187 -246 231 -116 56 -263 80 -361 57 l-36 -8 -17 61 c-17 61 -61 150 -94 194
l-18 24 -57 -46 -56 -47 34 -62 c44 -81 65 -163 65 -259 l0 -77 72 30 c201 83
376 54 513 -85 l60 -61 -82 -3 -83 -3 0 -74 0 -75 116 0 116 0 -4 -102 c-4
-93 -8 -113 -45 -202 l-42 -98 27 6 c15 3 60 15 101 26 90 24 102 24 170 4 55
-16 128 -73 158 -124 l16 -27 68 24 c89 31 173 39 251 23 65 -12 159 -48 157
-59 -1 -6 -659 -617 -684 -635 -9 -7 -136 75 -430 278 -230 158 -424 285 -431
282 -15 -6 -486 -295 -496 -305 -4 -3 10 -34 32 -68 l39 -62 178 109 178 109
17 -94 c84 -479 419 -734 754 -575 35 17 94 59 136 98 333 308 923 854 963
893 l50 48 0 -142 c0 -155 19 -246 71 -350 85 -168 196 -268 424 -382 245
-123 370 -227 370 -308 0 -37 -27 -53 -125 -76 -174 -41 -310 -91 -640 -235
-82 -36 -157 -66 -167 -66 -9 0 -112 29 -228 65 -117 37 -217 64 -222 63 -12
-4 -52 -127 -44 -135 11 -12 718 -225 886 -267 438 -112 777 -156 1186 -156
l204 0 0 -360 0 -360 -2410 0 -2410 0 0 459 0 459 50 36 c190 136 474 263 732
326 227 56 311 65 583 65 316 0 472 -22 848 -116 87 -21 164 -39 171 -39 17 0
50 131 35 141 -24 14 -388 99 -529 123 -239 41 -353 49 -593 43 -241 -6 -372
-23 -578 -76 -222 -57 -454 -155 -646 -272 -36 -21 -67 -39 -69 -39 -2 0 -3
114 -2 252 l3 253 347 213 348 213 -38 59 c-20 32 -41 59 -45 60 -6 2 -474
-280 -595 -358 l-22 -14 0 1047 0 1048 71 -6 c82 -7 152 -37 218 -94 l44 -37
21 30 c40 56 108 123 157 155 137 87 338 93 477 12 24 -14 45 -23 46 -21 1 1
19 27 40 56 21 29 36 58 33 65 -7 18 -123 73 -193 91 -83 21 -241 20 -319 -3z
m3002 -1579 l246 -217 -102 -3 -101 -3 0 -74 0 -75 188 0 189 0 401 -356 c399
-354 402 -356 402 -395 0 -21 -1 -39 -3 -39 -2 0 -40 13 -85 30 -145 53 -268
73 -449 74 l-163 1 0 48 c0 136 -146 275 -440 422 -139 69 -223 128 -284 197
-135 155 -172 344 -116 606 l12 52 30 -25 c16 -14 140 -123 275 -243z m-1877
-487 c135 -92 250 -172 255 -177 15 -14 -58 -74 -113 -92 -71 -25 -167 -21
-230 9 -76 35 -155 121 -202 220 -40 82 -80 217 -80 267 l0 29 63 -44 c34 -24
172 -120 307 -212z m2665 -725 c133 -13 252 -44 353 -90 l82 -39 0 -172 0
-172 -262 6 c-393 9 -660 45 -1034 137 -274 68 -262 62 -189 95 318 144 547
213 779 234 129 12 158 12 271 1z"/>
<path d="M4060 3995 l0 -75 75 0 75 0 0 75 0 75 -75 0 -75 0 0 -75z"/>
<path d="M4610 3681 c-120 -37 -220 -157 -220 -263 l0 -28 75 0 c72 0 75 1 75
24 0 57 79 126 145 126 43 0 96 -30 122 -69 48 -71 20 -175 -57 -213 -32 -16
-75 -18 -462 -18 l-428 0 0 -75 0 -75 433 0 c498 0 502 0 588 77 72 65 99 126
99 223 0 96 -28 158 -98 221 -74 67 -187 96 -272 70z"/>
<path d="M460 2865 l0 -75 75 0 75 0 0 75 0 75 -75 0 -75 0 0 -75z"/>
<path d="M920 1065 l0 -75 75 0 75 0 0 75 0 75 -75 0 -75 0 0 -75z"/>
<path d="M1520 1065 l0 -75 75 0 75 0 0 75 0 75 -75 0 -75 0 0 -75z"/>
<path d="M1220 765 l0 -75 75 0 75 0 0 75 0 75 -75 0 -75 0 0 -75z"/>
</g>
</svg>
